<?xml version="1.0" standalone="no"?><!DOCTYPE svg PUBLIC "-//W3C//DTD SVG 1.1//EN" "http://www.w3.org/Graphics/SVG/1.1/DTD/svg11.dtd"><svg class="icon" width="200px" height="200.00px" viewBox="0 0 1024 1024" version="1.1" xmlns="http://www.w3.org/2000/svg"><path d="M760.336 893.803c-0.604-344.376-301.27-625.811-632.336-626.46V125.922c406.205 0 768.391 345.396 768.391 767.881H760.336z m-116.699-0.032H507.658c0.448-84.616-42.502-179.191-110.561-250.079-67.596-71.46-187.511-116.467-268.787-116.019V386.269c253.682 5.474 510.179 244.933 515.327 507.505v-0.003zM224.414 701.778c53 0 95.965 42.967 95.965 95.965 0 53.003-42.965 95.968-95.965 95.968s-95.951-42.965-95.951-95.968c0-52.998 42.951-95.965 95.951-95.965z" fill="#13227a" /></svg>